# xmcd CD database file
#
# Track frame offsets:
#	150
#	32548
#	48445
#	61947
#	72563
#	84718
#	101805
#	120118
#	133825
#	142004
#	149674
#	155898
#	162544
#	167774
#	171536
#	183892
#
# Disc length: 2602 seconds
#
# Revision: 0
# Processed by: cddbd v1.5.2PL0 Copyright (c) Steve Scherf et al.
# Submitted via: CDex 1.51
#
DISCID=f30a2810
DTITLE=Alexandre Thollon - l'harmonie-cas
DYEAR=1998
DGENRE=Blues
TTITLE0=Toledo
TTITLE1=Bordhiguera
TTITLE2=Serenade
TTITLE3=Caprice I
TTITLE4=Caprice II
TTITLE5=Valse de l'espoir
TTITLE6=Trossingen
TTITLE7=El cant dels occels
TTITLE8=Downby the tanyard side
TTITLE9=The castle dromore
TTITLE10=The spanish lady
TTITLE11=The gentle maiden
TTITLE12=Love three dearest
TTITLE13=The next market day
TTITLE14=Voice from the past
TTITLE15=Let's get started
EXTD=YEAR: 1998
EXTT0=
EXTT1=
EXTT2=
EXTT3=
EXTT4=
EXTT5=
EXTT6=
EXTT7=
EXTT8=
EXTT9=
EXTT10=
EXTT11=
EXTT12=
EXTT13=
EXTT14=
EXTT15=
PLAYORDER=
